<svg width="450" height="100" viewBox="0 0 450 100" fill="none" xmlns="http://www.w3.org/2000/svg">
<path d="M226.415 21.985H231.515V24.535C229.588 24.535 227.917 25.1867 226.5 26.49C225.14 27.7933 224.035 30.2017 223.185 33.715L211.285 77.32L211.115 78H200.915L190.545 39.92L180.345 77.32L180.175 78H169.975L156.885 30.06C156.602 28.9833 156.092 28.02 155.355 27.17C154.618 26.32 153.74 25.6683 152.72 25.215C151.757 24.7617 150.708 24.535 149.575 24.535V21.985H169.975V24.535C168.955 24.535 168.133 24.9317 167.51 25.725C166.887 26.5183 166.717 27.3967 167 28.36L178.985 72.475L189.185 35.075L187.825 30.06C187.542 28.9833 187.032 28.02 186.295 27.17C185.615 26.32 184.765 25.6683 183.745 25.215C182.725 24.7617 181.648 24.535 180.515 24.535V21.985H200.915V24.535C199.895 24.535 199.073 24.9317 198.45 25.725C197.883 26.5183 197.713 27.3967 197.94 28.36L210.01 72.475L221.23 31.08C221.683 29.4367 221.372 27.935 220.295 26.575C219.275 25.215 217.915 24.535 216.215 24.535V21.985H226.415ZM247.309 37.285C252.692 37.285 257.339 39.1267 261.249 42.81C265.159 46.4933 267.284 50.9983 267.624 56.325V56.495C267.624 57.175 267.397 57.7417 266.944 58.195C266.491 58.6483 265.924 58.875 265.244 58.875H239.999C239.149 58.875 238.469 59.1867 237.959 59.81C237.449 60.4333 237.279 61.1417 237.449 61.935C237.959 64.655 238.894 67.12 240.254 69.33C241.614 71.4833 243.371 73.155 245.524 74.345C247.677 75.535 249.972 75.9033 252.409 75.45C254.052 75.1667 255.611 74.685 257.084 74.005C258.614 73.2683 259.974 72.3333 261.164 71.2C262.411 70.0667 263.459 68.7917 264.309 67.375C264.026 67.375 263.742 67.3467 263.459 67.29C263.176 67.1767 262.949 67.0067 262.779 66.78C262.609 66.5533 262.467 66.2983 262.354 66.015C262.071 65.0517 262.411 64.3433 263.374 63.89C264.111 63.6633 264.734 63.7483 265.244 64.145C265.811 64.485 266.066 65.165 266.009 66.185C265.952 67.1483 265.499 68.2533 264.649 69.5C260.796 75.1667 255.016 78 247.309 78C241.642 78 236.826 76.0167 232.859 72.05C228.892 68.0833 226.909 63.295 226.909 57.685C226.909 52.0183 228.892 47.2017 232.859 43.235C236.826 39.2683 241.642 37.285 247.309 37.285ZM254.704 56.325C255.441 56.325 256.064 56.0417 256.574 55.475C257.084 54.8517 257.282 54.1717 257.169 53.435C256.659 49.4683 255.469 46.21 253.599 43.66C251.786 41.0533 249.689 39.75 247.309 39.75C245.722 39.75 244.221 40.345 242.804 41.535C241.444 42.725 240.282 44.3683 239.319 46.465C238.356 48.505 237.704 50.8283 237.364 53.435C237.251 54.1717 237.449 54.8517 237.959 55.475C238.469 56.0417 239.121 56.325 239.914 56.325H254.704ZM301.576 21.985C305.77 21.985 309.34 23.4867 312.286 26.49C315.29 29.4367 316.791 33.035 316.791 37.285C316.791 41.4783 315.29 45.0767 312.286 48.08C309.34 51.0267 305.77 52.5 301.576 52.5H286.276V70.35C286.276 71.7667 286.758 72.985 287.721 74.005C288.741 74.9683 289.96 75.45 291.376 75.45V78H270.976V75.45C272.393 75.45 273.583 74.9683 274.546 74.005C275.566 72.985 276.076 71.7667 276.076 70.35V29.635C276.076 28.2183 275.566 27.0283 274.546 26.065C273.583 25.045 272.393 24.535 270.976 24.535V21.985H301.576ZM296.476 49.95C299.253 49.95 301.633 48.7317 303.616 46.295C305.656 43.8017 306.676 40.7983 306.676 37.285C306.676 33.715 305.656 30.7117 303.616 28.275C301.633 25.7817 299.253 24.535 296.476 24.535H291.376C289.96 24.535 288.741 25.045 287.721 26.065C286.758 27.0283 286.276 28.2183 286.276 29.635V44.85C286.276 46.2667 286.758 47.485 287.721 48.505C288.741 49.4683 289.96 49.95 291.376 49.95H296.476ZM337.373 37.285C342.756 37.285 347.403 39.1267 351.313 42.81C355.223 46.4933 357.348 50.9983 357.688 56.325V56.495C357.688 57.175 357.461 57.7417 357.008 58.195C356.554 58.6483 355.988 58.875 355.308 58.875H330.063C329.213 58.875 328.533 59.1867 328.023 59.81C327.513 60.4333 327.343 61.1417 327.513 61.935C328.023 64.655 328.958 67.12 330.318 69.33C331.678 71.4833 333.434 73.155 335.588 74.345C337.741 75.535 340.036 75.9033 342.473 75.45C344.116 75.1667 345.674 74.685 347.148 74.005C348.678 73.2683 350.038 72.3333 351.228 71.2C352.474 70.0667 353.523 68.7917 354.373 67.375C354.089 67.375 353.806 67.3467 353.523 67.29C353.239 67.1767 353.013 67.0067 352.843 66.78C352.673 66.5533 352.531 66.2983 352.418 66.015C352.134 65.0517 352.474 64.3433 353.438 63.89C354.174 63.6633 354.798 63.7483 355.308 64.145C355.874 64.485 356.129 65.165 356.073 66.185C356.016 67.1483 355.563 68.2533 354.713 69.5C350.859 75.1667 345.079 78 337.373 78C331.706 78 326.889 76.0167 322.923 72.05C318.956 68.0833 316.973 63.295 316.973 57.685C316.973 52.0183 318.956 47.2017 322.923 43.235C326.889 39.2683 331.706 37.285 337.373 37.285ZM344.768 56.325C345.504 56.325 346.128 56.0417 346.638 55.475C347.148 54.8517 347.346 54.1717 347.233 53.435C346.723 49.4683 345.533 46.21 343.663 43.66C341.849 41.0533 339.753 39.75 337.373 39.75C335.786 39.75 334.284 40.345 332.868 41.535C331.508 42.725 330.346 44.3683 329.383 46.465C328.419 48.505 327.768 50.8283 327.428 53.435C327.314 54.1717 327.513 54.8517 328.023 55.475C328.533 56.0417 329.184 56.325 329.978 56.325H344.768ZM399.205 72.9L400.14 73.835C399.573 75.5917 398.44 76.8383 396.74 77.575C396.003 77.8583 395.238 78 394.445 78C392.348 78 390.705 77.15 389.515 75.45C388.325 76.1867 387.05 76.725 385.69 77.065C382.063 77.9717 378.125 78.2267 373.875 77.83C369.625 77.4333 366.536 76.4133 364.61 74.77C363.42 73.75 362.57 72.5317 362.06 71.115C361.606 69.6983 361.55 68.14 361.89 66.44C362.286 64.74 363.08 63.0683 364.27 61.425C365.516 59.725 367.386 58.0817 369.88 56.495C372.373 54.9083 375.376 53.5767 378.89 52.5C379.4 52.3867 379.938 52.2733 380.505 52.16C381.071 51.99 381.553 51.8483 381.95 51.735C382.346 51.6217 382.743 51.5083 383.14 51.395C383.536 51.2817 383.876 51.1967 384.16 51.14C385.746 50.3467 386.54 49.0717 386.54 47.315C386.54 45.6717 386.086 44.17 385.18 42.81C384.273 41.3933 383.083 40.345 381.61 39.665C380.76 39.3817 379.57 39.1833 378.04 39.07C376.51 38.9567 374.781 39.1833 372.855 39.75C370.985 40.3167 369.596 41.28 368.69 42.64C369.71 42.8667 370.56 43.405 371.24 44.255C371.92 45.0483 372.26 45.955 372.26 46.975C372.26 48.2217 371.806 49.2983 370.9 50.205C370.05 51.055 369.001 51.48 367.755 51.48C365.998 51.48 364.695 50.7433 363.845 49.27C363.051 47.7967 362.938 46.2383 363.505 44.595C364.015 43.1783 364.865 41.96 366.055 40.94C367.245 39.8633 368.605 39.0983 370.135 38.645C371.721 38.135 373.195 37.795 374.555 37.625C375.971 37.3983 377.416 37.285 378.89 37.285C383.82 37.285 388.013 38.5317 391.47 41.025C394.983 43.4617 396.74 46.4367 396.74 49.95V71.965C396.74 72.5317 396.853 73.0417 397.08 73.495C397.363 73.8917 397.675 74.09 398.015 74.09C398.581 74.09 398.978 73.6933 399.205 72.9ZM386.54 65.25V54.2C386.54 53.8033 386.37 53.4917 386.03 53.265C385.69 52.9817 385.321 52.8967 384.925 53.01C382.545 53.69 380.533 54.37 378.89 55.05C377.7 55.56 376.623 56.2117 375.66 57.005C374.753 57.7983 374.016 58.62 373.45 59.47C372.94 60.32 372.486 61.255 372.09 62.275C371.75 63.2383 371.523 64.145 371.41 64.995C371.296 65.7883 371.24 66.5817 371.24 67.375C371.24 70.0383 371.948 72.05 373.365 73.41C374.781 74.77 376.623 75.45 378.89 75.45C380.986 75.45 382.771 74.4583 384.245 72.475C385.775 70.4917 386.54 68.0833 386.54 65.25ZM448.43 40.685C448.43 41.195 448.345 41.6483 448.175 42.045C448.005 42.4417 447.75 42.81 447.41 43.15C447.126 43.4333 446.758 43.6883 446.305 43.915C445.908 44.085 445.483 44.17 445.03 44.17V44.085C445.03 43.4617 444.718 43.0367 444.095 42.81C443.528 42.5833 443.018 42.6967 442.565 43.15L428.115 57.6L438.825 69.925C440.638 71.965 442.168 73.41 443.415 74.26C444.661 75.0533 446.333 75.45 448.43 75.45V78H432.365L430.155 75.45L420.89 64.825L417.915 67.8V70.35C417.915 71.7667 418.396 72.985 419.36 74.005C420.38 74.9683 421.598 75.45 423.015 75.45V78H402.615V75.45C404.031 75.45 405.221 74.9683 406.185 74.005C407.205 72.985 407.743 71.7667 407.8 70.35V32.185H402.615V29.635C402.841 29.635 403.181 29.6067 403.635 29.55C404.088 29.4933 404.91 29.295 406.1 28.955C407.346 28.5583 408.508 28.0483 409.585 27.425C410.718 26.8017 411.936 25.7817 413.24 24.365C414.6 22.9483 415.733 21.305 416.64 19.435H417.915V64.145L419.19 62.955L441.545 40.515L443.67 38.56C444.576 37.71 445.596 37.54 446.73 38.05C447.863 38.5033 448.43 39.3817 448.43 40.685Z" fill="black"/>
<path d="M34.1453 92.2884C42.926 96.6652 50.8611 98.9112 60.8308 99.8418C64.1628 100.153 71.8771 99.9846 75.656 99.5185C87.071 98.1108 97.8011 94.0323 107.647 87.3591C111.837 84.5192 112.349 84.0462 111.557 83.7426C110.683 83.4068 99.9535 83.8559 96.0408 84.392C94.0345 84.6669 88.6272 85.6473 84.0245 86.5707C73.3375 88.7147 70.6666 89.0433 63.7958 89.0592C57.8245 89.073 54.4851 88.7059 49.5354 87.4917C36.7282 84.3498 27.7025 77.9536 23.1272 68.7771C21.0458 64.6026 20.2633 61.3059 20.2588 56.6937C20.2509 48.5558 24.8274 39.8728 31.1311 36.0656C33.6243 34.5598 35.0044 34.2286 38.2263 34.3627C41.4634 34.4976 43.677 35.3524 45.8331 37.3003C49.2349 40.3736 49.9308 45.7648 47.3803 49.2857C46.2904 50.7904 46.282 50.8539 47.1759 50.8563C48.625 50.8595 51.0027 49.7214 52.6096 48.2554C56.763 44.4662 57.585 38.3702 54.7101 32.6791C53.4348 30.1547 50.1584 27.1289 47.0551 25.6095C43.7543 23.9934 41.4726 23.3975 37.723 23.1723C32.5603 22.8622 26.9468 24.4298 22.2201 27.5017C18.8092 29.7185 15.2582 33.4479 9.49417 40.8672C6.76022 44.3863 3.34363 48.7283 1.90174 50.5163C-0.501897 55.5162 -0.492291 55.5363 1.17585 59.0378L1.19619 59.0806C4.34059 65.6814 8.90074 72.215 14.1615 77.6566C20.517 84.2307 25.9278 88.1924 34.1453 92.2884Z" fill="black"/>
<path d="M33.6961 70.9372C39.0143 76.5292 48.0286 80.3616 58.3339 81.412C62.1369 81.7996 69.4704 81.5883 73.4712 80.9759C75.1878 80.7131 80.1036 79.8045 84.3951 78.9568C96.6468 76.5367 98.4463 76.3199 106.399 76.3059C112.637 76.2949 116.474 76.5919 118.631 77.2529C119.329 77.4668 121.399 75.2583 124.883 70.5822C127.866 66.5783 129.576 65.8124 128.467 64.7043C127.932 64.1694 119.995 64.0044 115.918 64.1694C107.446 64.5121 100.857 65.5971 88.4526 68.6923C77.8646 71.3342 73.1216 72.1076 66.2927 72.3057C56.5657 72.5878 49.8577 71.0235 44.4081 67.2022C37.9939 62.7046 35.5281 55.4973 38.4214 49.704C39.1886 48.1678 40.8758 46.5784 42.0601 46.2762C42.7047 46.1117 42.7743 45.953 42.6196 44.9996C41.965 40.9656 36.1957 40.6832 32.3221 44.4956C29.3034 47.4665 28.0441 50.56 27.8276 55.5364C27.5644 61.5841 29.4119 66.4326 33.6961 70.9372Z" fill="black"/>
<path d="M115.185 47.9561C117.057 50.3958 118.897 52.6079 119.274 52.8718C120.838 53.9678 123.253 53.0523 123.253 51.3629C123.253 50.6207 119.48 45.4939 109.208 32.2771C103.051 24.3549 102.426 23.7012 101.01 23.7012C99.7189 23.7012 98.9781 24.4426 95.6311 29.0851C94.4295 30.7518 93.3059 32.1153 93.1342 32.1151C92.9626 32.115 92.4047 31.5209 91.8945 30.795C91.3843 30.0691 88.7764 26.5258 86.0992 22.9209C83.4221 19.316 78.6701 12.8929 75.5393 8.64727C72.4085 4.40164 69.5427 0.714836 69.1708 0.454364C68.2652 -0.17991 66.6707 -0.144992 65.8546 0.526976C65.4898 0.827382 63.2621 3.70494 60.9043 6.92155C58.5464 10.1382 55.3733 14.4596 53.8528 16.5247C51.517 19.6973 51.1499 20.3535 51.4853 20.7576C51.7036 21.0206 53.0559 22.0831 54.4904 23.1187L57.0986 25.0016L57.9975 24.0393C58.4919 23.51 59.0352 23.0769 59.2048 23.0769C59.8435 23.0769 60.8787 24.3295 64.8797 29.9434C67.1431 33.1191 69.1104 35.7596 69.2515 35.8111C69.3925 35.8627 71.1722 33.5457 73.2062 30.6623C77.2827 24.8836 78.4895 23.389 79.0795 23.389C79.872 23.389 81.1685 24.7592 84.1891 28.7891C85.8874 31.0547 89.7065 36.0685 92.6761 39.9309C95.6457 43.7933 98.9062 48.0419 99.9217 49.3722C100.937 50.7026 101.877 51.7911 102.01 51.7911C102.143 51.7911 102.869 50.9308 103.623 49.8794C108.953 42.4485 109.759 41.7061 111.145 42.9489C111.495 43.2631 113.313 45.5163 115.185 47.9561Z" fill="black"/>
</svg>
